<?xml version="1.0" encoding="utf-8"?>
<!-- Uploaded to: SVG Repo, www.svgrepo.com, Generator: SVG Repo Mixer Tools -->
<svg width="800px" height="800px" viewBox="0 0 128 128" xmlns="http://www.w3.org/2000/svg" xmlns:xlink="http://www.w3.org/1999/xlink" aria-hidden="true" role="img" class="iconify iconify--noto" preserveAspectRatio="xMidYMid meet">
<path d="M116.46 3.96h-104c-4.42 0-8 3.58-8 8v104c0 4.42 3.58 8 8 8h104c4.42 0 8-3.58 8-8v-104c0-4.42-3.58-8-8-8z" fill="#f77e00">
</path>
<path d="M110.16 3.96h-98.2a7.555 7.555 0 0 0-7.5 7.5v97.9c-.01 4.14 3.34 7.49 7.48 7.5H110.06c4.14.01 7.49-3.34 7.5-7.48V11.46c.09-4.05-3.13-7.41-7.18-7.5h-.22z" fill="#ff9800">
</path>
<path d="M40.16 12.86c0-2.3-1.6-3-10.8-2.7c-7.7.3-11.5 1.2-13.8 4s-2.9 8.5-3 15.3c0 4.8 0 9.3 2.5 9.3c3.4 0 3.4-7.9 6.2-12.3c5.4-8.7 18.9-10.6 18.9-13.6z" opacity=".75" fill="#ffbd52">
</path>
<g>
<path d="M43.7 62.21v-25.7a2.258 2.258 0 0 1 3.4-2l43.5 25.7c1.13.72 1.47 2.22.75 3.35c-.19.3-.45.55-.75.75l-43.5 25.6c-1.08.63-2.46.27-3.09-.81c-.21-.36-.32-.77-.31-1.19v-25.7z" fill="#fafafa">
</path>
</g>
</svg>